<svg width="199" height="73" viewBox="0 0 199 73" fill="none" xmlns="http://www.w3.org/2000/svg">
<g filter="url(#filter0_i_0_1)">
<path d="M0 8C0 3.58172 3.58172 0 8 0H65C69.4183 0 73 3.58172 73 8V65C73 69.4183 69.4183 73 65 73H8C3.58172 73 0 69.4183 0 65V8Z" fill="#31D5DF"/>
</g>
<path d="M43.4148 27.6875C43.2557 26.1989 42.5852 25.0398 41.4034 24.2102C40.233 23.3807 38.7102 22.9659 36.8352 22.9659C35.517 22.9659 34.3864 23.1648 33.4432 23.5625C32.5 23.9602 31.7784 24.5 31.2784 25.1818C30.7784 25.8636 30.5227 26.642 30.5114 27.517C30.5114 28.2443 30.6761 28.875 31.0057 29.4091C31.3466 29.9432 31.8068 30.3977 32.3864 30.7727C32.9659 31.1364 33.608 31.4432 34.3125 31.6932C35.017 31.9432 35.7273 32.1534 36.4432 32.3239L39.7159 33.142C41.0341 33.4489 42.3011 33.8636 43.517 34.3864C44.7443 34.9091 45.8409 35.5682 46.8068 36.3636C47.7841 37.1591 48.5568 38.1193 49.125 39.2443C49.6932 40.3693 49.9773 41.6875 49.9773 43.1989C49.9773 45.2443 49.4545 47.0455 48.4091 48.6023C47.3636 50.1477 45.8523 51.358 43.875 52.233C41.9091 53.0966 39.5284 53.5284 36.733 53.5284C34.017 53.5284 31.6591 53.108 29.6591 52.267C27.6705 51.4261 26.1136 50.1989 24.9886 48.5852C23.875 46.9716 23.2727 45.0057 23.1818 42.6875H29.4034C29.4943 43.9034 29.8693 44.9148 30.5284 45.7216C31.1875 46.5284 32.0455 47.1307 33.1023 47.5284C34.1705 47.9261 35.3636 48.125 36.6818 48.125C38.0568 48.125 39.2614 47.9205 40.2955 47.5114C41.3409 47.0909 42.1591 46.5114 42.75 45.7727C43.3409 45.0227 43.642 44.1477 43.6534 43.1477C43.642 42.2386 43.375 41.4886 42.8523 40.8977C42.3295 40.2955 41.5966 39.7955 40.6534 39.3977C39.7216 38.9886 38.6307 38.625 37.3807 38.3068L33.4091 37.2841C30.5341 36.5455 28.2614 35.4261 26.5909 33.9261C24.9318 32.4148 24.1023 30.4091 24.1023 27.9091C24.1023 25.8523 24.6591 24.0511 25.7727 22.5057C26.8977 20.9602 28.4261 19.7614 30.358 18.9091C32.2898 18.0455 34.4773 17.6136 36.9205 17.6136C39.3977 17.6136 41.5682 18.0455 43.4318 18.9091C45.3068 19.7614 46.7784 20.9489 47.8466 22.4716C48.9148 23.983 49.4659 25.7216 49.5 27.6875H43.4148Z" fill="white"/>
<path d="M107.415 27.6875C107.256 26.1989 106.585 25.0398 105.403 24.2102C104.233 23.3807 102.71 22.9659 100.835 22.9659C99.517 22.9659 98.3864 23.1648 97.4432 23.5625C96.5 23.9602 95.7784 24.5 95.2784 25.1818C94.7784 25.8636 94.5227 26.642 94.5114 27.517C94.5114 28.2443 94.6761 28.875 95.0057 29.4091C95.3466 29.9432 95.8068 30.3977 96.3864 30.7727C96.9659 31.1364 97.608 31.4432 98.3125 31.6932C99.017 31.9432 99.7273 32.1534 100.443 32.3239L103.716 33.142C105.034 33.4489 106.301 33.8636 107.517 34.3864C108.744 34.9091 109.841 35.5682 110.807 36.3636C111.784 37.1591 112.557 38.1193 113.125 39.2443C113.693 40.3693 113.977 41.6875 113.977 43.1989C113.977 45.2443 113.455 47.0455 112.409 48.6023C111.364 50.1477 109.852 51.358 107.875 52.233C105.909 53.0966 103.528 53.5284 100.733 53.5284C98.017 53.5284 95.6591 53.108 93.6591 52.267C91.6705 51.4261 90.1136 50.1989 88.9886 48.5852C87.875 46.9716 87.2727 45.0057 87.1818 42.6875H93.4034C93.4943 43.9034 93.8693 44.9148 94.5284 45.7216C95.1875 46.5284 96.0455 47.1307 97.1023 47.5284C98.1705 47.9261 99.3636 48.125 100.682 48.125C102.057 48.125 103.261 47.9205 104.295 47.5114C105.341 47.0909 106.159 46.5114 106.75 45.7727C107.341 45.0227 107.642 44.1477 107.653 43.1477C107.642 42.2386 107.375 41.4886 106.852 40.8977C106.33 40.2955 105.597 39.7955 104.653 39.3977C103.722 38.9886 102.631 38.625 101.381 38.3068L97.4091 37.2841C94.5341 36.5455 92.2614 35.4261 90.5909 33.9261C88.9318 32.4148 88.1023 30.4091 88.1023 27.9091C88.1023 25.8523 88.6591 24.0511 89.7727 22.5057C90.8977 20.9602 92.4261 19.7614 94.358 18.9091C96.2898 18.0455 98.4773 17.6136 100.92 17.6136C103.398 17.6136 105.568 18.0455 107.432 18.9091C109.307 19.7614 110.778 20.9489 111.847 22.4716C112.915 23.983 113.466 25.7216 113.5 27.6875H107.415ZM123.178 62.8182C122.337 62.8182 121.558 62.75 120.842 62.6136C120.138 62.4886 119.575 62.3409 119.155 62.1705L120.587 57.3636C121.484 57.625 122.286 57.75 122.99 57.7386C123.695 57.7273 124.314 57.5057 124.848 57.0739C125.393 56.6534 125.854 55.9489 126.229 54.9602L126.757 53.5455L117.263 26.8182H123.808L129.842 46.5909H130.115L136.166 26.8182H142.729L132.246 56.1705C131.757 57.5568 131.109 58.7443 130.303 59.733C129.496 60.733 128.507 61.4943 127.337 62.017C126.178 62.5511 124.791 62.8182 123.178 62.8182ZM153.169 37.6591V53H146.999V26.8182H152.896V31.267H153.203C153.805 29.8011 154.766 28.6364 156.084 27.7727C157.413 26.9091 159.055 26.4773 161.01 26.4773C162.817 26.4773 164.391 26.8636 165.732 27.6364C167.084 28.4091 168.129 29.5284 168.868 30.9943C169.618 32.4602 169.987 34.2386 169.976 36.3295V53H163.805V37.2841C163.805 35.5341 163.351 34.1648 162.442 33.1761C161.544 32.1875 160.3 31.6932 158.709 31.6932C157.629 31.6932 156.669 31.9318 155.828 32.4091C154.999 32.875 154.345 33.5511 153.868 34.4375C153.402 35.3239 153.169 36.3977 153.169 37.6591ZM187.669 53.5114C185.055 53.5114 182.811 52.9375 180.936 51.7898C179.072 50.642 177.635 49.0568 176.624 47.0341C175.624 45 175.124 42.6591 175.124 40.0114C175.124 37.3523 175.635 35.0057 176.658 32.9716C177.68 30.9261 179.124 29.3352 180.987 28.1989C182.862 27.0511 185.078 26.4773 187.635 26.4773C189.76 26.4773 191.641 26.8693 193.277 27.6534C194.925 28.4261 196.237 29.5227 197.214 30.9432C198.192 32.3523 198.749 34 198.885 35.8864H192.987C192.749 34.625 192.18 33.5739 191.283 32.733C190.396 31.8807 189.209 31.4545 187.72 31.4545C186.459 31.4545 185.351 31.7955 184.396 32.4773C183.442 33.1477 182.697 34.1136 182.163 35.375C181.641 36.6364 181.379 38.1477 181.379 39.9091C181.379 41.6932 181.641 43.2273 182.163 44.5114C182.686 45.7841 183.419 46.767 184.362 47.4602C185.317 48.142 186.436 48.483 187.72 48.483C188.629 48.483 189.442 48.3125 190.158 47.9716C190.885 47.6193 191.493 47.1136 191.982 46.4545C192.47 45.7955 192.805 44.9943 192.987 44.0511H198.885C198.737 45.9034 198.192 47.5455 197.249 48.9773C196.305 50.3977 195.021 51.5114 193.396 52.3182C191.771 53.1136 189.862 53.5114 187.669 53.5114Z" fill="#31D5DF"/>
<defs>
<filter id="filter0_i_0_1" x="0" y="0" width="73" height="77" filterUnits="userSpaceOnUse" color-interpolation-filters="sRGB">
<feFlood flood-opacity="0" result="BackgroundImageFix"/>
<feBlend mode="normal" in="SourceGraphic" in2="BackgroundImageFix" result="shape"/>
<feColorMatrix in="SourceAlpha" type="matrix" values="0 0 0 0 0 0 0 0 0 0 0 0 0 0 0 0 0 0 127 0" result="hardAlpha"/>
<feOffset dy="4"/>
<feGaussianBlur stdDeviation="2"/>
<feComposite in2="hardAlpha" operator="arithmetic" k2="-1" k3="1"/>
<feColorMatrix type="matrix" values="0 0 0 0 0 0 0 0 0 0 0 0 0 0 0 0 0 0 0.25 0"/>
<feBlend mode="normal" in2="shape" result="effect1_innerShadow_0_1"/>
</filter>
</defs>
</svg>
